<?xml version="1.0" encoding="UTF-8" standalone="no"?>
<!DOCTYPE svg PUBLIC "-//W3C//DTD SVG 1.1//EN"
 "http://www.w3.org/Graphics/SVG/1.1/DTD/svg11.dtd">
<!-- Generated by graphviz version 2.38.0 (20140413.2041)
 -->
<!-- Title: %3 Pages: 1 -->
<svg width="788pt" height="457pt"
 viewBox="0.00 0.00 787.56 457.00" xmlns="http://www.w3.org/2000/svg" xmlns:xlink="http://www.w3.org/1999/xlink">
<g id="graph0" class="graph" transform="scale(1 1) rotate(0) translate(4 453)">
<title>%3</title>
<polygon fill="white" stroke="none" points="-4,4 -4,-453 783.56,-453 783.56,4 -4,4"/>
<!-- 1.A -->
<g id="node1" class="node"><title>1.A</title>
<polygon fill="#ccffcc" stroke="black" points="139,-259 85,-259 85,-223 139,-223 139,-259"/>
<text text-anchor="middle" x="112" y="-237.3" font-family="Times,serif" font-size="14.00">1.A</text>
</g>
<!-- 1.I -->
<g id="node2" class="node"><title>1.I</title>
<polygon fill="#ccffcc" stroke="black" points="230,-326 176,-326 176,-290 230,-290 230,-326"/>
<text text-anchor="middle" x="203" y="-304.3" font-family="Times,serif" font-size="14.00">1.I</text>
</g>
<!-- 1.A&#45;&gt;1.I -->
<g id="edge3" class="edge"><title>1.A&#45;&gt;1.I</title>
<path fill="none" stroke="#000000" d="M136.982,-266.835C143.196,-272.837 150.092,-278.943 157,-284 162.715,-288.184 169.253,-292.097 175.541,-295.499"/>
<polygon fill="#000000" stroke="#000000" points="139.071,-263.973 129.526,-259.374 134.12,-268.922 139.071,-263.973"/>
</g>
<!-- 1.F -->
<g id="node5" class="node"><title>1.F</title>
<polygon fill="#ccffcc" stroke="black" points="321,-347 267,-347 267,-311 321,-311 321,-347"/>
<text text-anchor="middle" x="294" y="-325.3" font-family="Times,serif" font-size="14.00">1.F</text>
</g>
<!-- 1.A&#45;&gt;1.F -->
<g id="edge5" class="edge"><title>1.A&#45;&gt;1.F</title>
<path fill="none" stroke="#000000" d="M149.067,-251.484C172.758,-259.033 204.051,-270.285 230,-284 244.379,-291.6 259.24,-302.069 270.915,-310.997"/>
<polygon fill="#000000" stroke="#000000" points="150.005,-248.11 139.417,-248.479 147.924,-254.794 150.005,-248.11"/>
</g>
<!-- 1.B -->
<g id="node7" class="node"><title>1.B</title>
<polygon fill="#ccffcc" stroke="black" points="230,-212 176,-212 176,-176 230,-176 230,-212"/>
<text text-anchor="middle" x="203" y="-190.3" font-family="Times,serif" font-size="14.00">1.B</text>
</g>
<!-- 1.A&#45;&gt;1.B -->
<g id="edge4" class="edge"><title>1.A&#45;&gt;1.B</title>
<path fill="none" stroke="#000000" d="M148.225,-222.398C157.478,-217.512 167.291,-212.329 175.966,-207.748"/>
<polygon fill="#000000" stroke="#000000" points="146.43,-219.388 139.222,-227.153 149.699,-225.578 146.43,-219.388"/>
</g>
<!-- 2.A -->
<g id="node14" class="node"><title>2.A</title>
<polygon fill="#ffffcc" stroke="black" points="779.404,-224.544 779.404,-239.456 762.599,-250 738.834,-250 722.029,-239.456 722.029,-224.544 738.834,-214 762.599,-214 779.404,-224.544"/>
<text text-anchor="middle" x="750.716" y="-228.3" font-family="Times,serif" font-size="14.00">2.A</text>
</g>
<!-- 1.A&#45;&gt;2.A -->
<g id="edge22" class="edge"><title>1.A&#45;&gt;2.A</title>
<path fill="none" stroke="#aa00ff" stroke-width="3" stroke-dasharray="1,5" d="M115.669,-222.886C124.43,-166.839 154.499,-0 202,-0 202,-0 202,-0 657.03,-0 700.491,-0 732.708,-142.177 744.65,-203.929"/>
<polygon fill="#aa00ff" stroke="#aa00ff" stroke-width="3" points="741.219,-204.621 746.518,-213.795 748.097,-203.319 741.219,-204.621"/>
<text text-anchor="middle" x="409" y="-3.8" font-family="Times,serif" font-size="14.00">==</text>
</g>
<!-- 1.D -->
<g id="node3" class="node"><title>1.D</title>
<polygon fill="#ccffcc" stroke="black" points="321,-171 267,-171 267,-135 321,-135 321,-171"/>
<text text-anchor="middle" x="294" y="-149.3" font-family="Times,serif" font-size="14.00">1.D</text>
</g>
<!-- 2C+ -->
<g id="node18" class="node"><title>2C+</title>
<ellipse fill="#ffffff" stroke="black" cx="409" cy="-151" rx="18.6979" ry="18.6979"/>
<text text-anchor="middle" x="409" y="-147.3" font-family="Times,serif" font-size="14.00">+</text>
</g>
<!-- 1.D&#45;&gt;2C+ -->
<g id="edge21" class="edge"><title>1.D&#45;&gt;2C+</title>
<path fill="none" stroke="#aa00ff" stroke-width="3" stroke-dasharray="1,5" d="M321.208,-152.536C338.784,-152.225 361.913,-151.816 379.874,-151.498"/>
<polygon fill="#aa00ff" stroke="#aa00ff" stroke-width="3" points="380.096,-154.995 390.032,-151.318 379.972,-147.996 380.096,-154.995"/>
<text text-anchor="middle" x="351.5" y="-155.8" font-family="Times,serif" font-size="14.00">in</text>
</g>
<!-- 1.E -->
<g id="node4" class="node"><title>1.E</title>
<polygon fill="#ccffcc" stroke="black" points="321,-110 267,-110 267,-74 321,-74 321,-110"/>
<text text-anchor="middle" x="294" y="-88.3" font-family="Times,serif" font-size="14.00">1.E</text>
</g>
<!-- 2.E -->
<g id="node17" class="node"><title>2.E</title>
<polygon fill="#ffffcc" stroke="black" points="511.53,-38.5442 511.53,-53.4558 494.726,-64 470.961,-64 454.156,-53.4558 454.156,-38.5442 470.961,-28 494.726,-28 511.53,-38.5442"/>
<text text-anchor="middle" x="482.843" y="-42.3" font-family="Times,serif" font-size="14.00">2.E</text>
</g>
<!-- 1.E&#45;&gt;2.E -->
<g id="edge25" class="edge"><title>1.E&#45;&gt;2.E</title>
<path fill="none" stroke="#aa00ff" stroke-width="3" stroke-dasharray="1,5" d="M321.374,-85.5069C353.464,-77.6065 407.861,-64.2142 444.31,-55.2405"/>
<polygon fill="#aa00ff" stroke="#aa00ff" stroke-width="3" points="445.208,-58.624 454.081,-52.8349 443.535,-51.827 445.208,-58.624"/>
<text text-anchor="middle" x="351.5" y="-83.8" font-family="Times,serif" font-size="14.00">==</text>
</g>
<!-- 1.G -->
<g id="node6" class="node"><title>1.G</title>
<polygon fill="#ccffcc" stroke="black" points="436,-395 382,-395 382,-359 436,-359 436,-395"/>
<text text-anchor="middle" x="409" y="-373.3" font-family="Times,serif" font-size="14.00">1.G</text>
</g>
<!-- 1.F&#45;&gt;1.G -->
<g id="edge8" class="edge"><title>1.F&#45;&gt;1.G</title>
<path fill="none" stroke="#000000" d="M330.624,-344.132C347.257,-351.198 366.699,-359.456 381.934,-365.928"/>
<polygon fill="#000000" stroke="#000000" points="331.781,-340.821 321.208,-340.133 329.044,-347.264 331.781,-340.821"/>
</g>
<!-- 1.H -->
<g id="node9" class="node"><title>1.H</title>
<polygon fill="#ccffcc" stroke="black" points="436,-347 382,-347 382,-311 436,-311 436,-347"/>
<text text-anchor="middle" x="409" y="-325.3" font-family="Times,serif" font-size="14.00">1.H</text>
</g>
<!-- 1.F&#45;&gt;1.H -->
<g id="edge1" class="edge"><title>1.F&#45;&gt;1.H</title>
<path fill="none" stroke="#000000" d="M331.56,-329C347.983,-329 366.984,-329 381.934,-329"/>
<polygon fill="#000000" stroke="#000000" points="331.209,-325.5 321.208,-329 331.208,-332.5 331.209,-325.5"/>
</g>
<!-- 2.B -->
<g id="node13" class="node"><title>2.B</title>
<polygon fill="#ffffcc" stroke="black" points="684.717,-224.544 684.717,-239.456 667.913,-250 644.147,-250 627.343,-239.456 627.343,-224.544 644.147,-214 667.913,-214 684.717,-224.544"/>
<text text-anchor="middle" x="656.03" y="-228.3" font-family="Times,serif" font-size="14.00">2.B</text>
</g>
<!-- 1.F&#45;&gt;2.B -->
<g id="edge17" class="edge"><title>1.F&#45;&gt;2.B</title>
<path fill="none" stroke="#aa00ff" stroke-width="3" stroke-dasharray="1,5" d="M321.15,-320.441C338.362,-314.917 361.431,-307.721 382,-302 482.19,-274.131 508.933,-273.642 609.187,-246 612.315,-245.137 615.555,-244.213 618.799,-243.265"/>
<polygon fill="#aa00ff" stroke="#aa00ff" stroke-width="3" points="619.854,-246.602 628.437,-240.391 617.853,-239.894 619.854,-246.602"/>
<text text-anchor="middle" x="482.843" y="-286.8" font-family="Times,serif" font-size="14.00">&gt;&lt;</text>
</g>
<!-- 2.F -->
<g id="node16" class="node"><title>2.F</title>
<polygon fill="#ffffcc" stroke="black" points="684.31,-366.544 684.31,-381.456 667.744,-392 644.316,-392 627.75,-381.456 627.75,-366.544 644.316,-356 667.744,-356 684.31,-366.544"/>
<text text-anchor="middle" x="656.03" y="-370.3" font-family="Times,serif" font-size="14.00">2.F</text>
</g>
<!-- 1.F&#45;&gt;2.F -->
<g id="edge18" class="edge"><title>1.F&#45;&gt;2.F</title>
<path fill="none" stroke="#aa00ff" stroke-width="3" stroke-dasharray="1,5" d="M309.829,-347.164C325.634,-365.075 352.418,-391.522 382,-404 467.419,-440.031 501.424,-443.757 590.187,-417 604.821,-412.589 619.187,-403.676 630.663,-395.103"/>
<polygon fill="#aa00ff" stroke="#aa00ff" stroke-width="3" points="633.125,-397.62 638.832,-388.693 628.804,-392.113 633.125,-397.62"/>
<text text-anchor="middle" x="482.843" y="-437.8" font-family="Times,serif" font-size="14.00">&gt;&lt;</text>
</g>
<!-- 2.G -->
<g id="node15" class="node"><title>2.G</title>
<polygon fill="#ffffcc" stroke="black" points="588.624,-388.544 588.624,-403.456 571.819,-414 548.054,-414 531.249,-403.456 531.249,-388.544 548.054,-378 571.819,-378 588.624,-388.544"/>
<text text-anchor="middle" x="559.937" y="-392.3" font-family="Times,serif" font-size="14.00">2.G</text>
</g>
<!-- 1.G&#45;&gt;2.G -->
<g id="edge20" class="edge"><title>1.G&#45;&gt;2.G</title>
<path fill="none" stroke="#aa00ff" stroke-width="3" stroke-dasharray="1,5" d="M436.284,-380.353C459.802,-383.353 494.555,-387.787 521.07,-391.169"/>
<polygon fill="#aa00ff" stroke="#aa00ff" stroke-width="3" points="520.785,-394.661 531.147,-392.455 521.671,-387.717 520.785,-394.661"/>
<text text-anchor="middle" x="482.843" y="-392.8" font-family="Times,serif" font-size="14.00">==</text>
</g>
<!-- 1.B&#45;&gt;1.D -->
<g id="edge7" class="edge"><title>1.B&#45;&gt;1.D</title>
<path fill="none" stroke="#000000" d="M239.514,-177.639C248.682,-173.416 258.381,-168.948 266.966,-164.993"/>
<polygon fill="#000000" stroke="#000000" points="237.84,-174.557 230.222,-181.92 240.769,-180.915 237.84,-174.557"/>
</g>
<!-- 1.B&#45;&gt;1.E -->
<g id="edge6" class="edge"><title>1.B&#45;&gt;1.E</title>
<path fill="none" stroke="#000000" d="M226.789,-167.883C242.587,-149.777 263.221,-126.128 277.226,-110.078"/>
<polygon fill="#000000" stroke="#000000" points="223.849,-165.928 219.911,-175.764 229.123,-170.531 223.849,-165.928"/>
</g>
<!-- 1.C -->
<g id="node8" class="node"><title>1.C</title>
<polygon fill="#ccffcc" stroke="black" points="586.937,-197 532.937,-197 532.937,-161 586.937,-161 586.937,-197"/>
<text text-anchor="middle" x="559.937" y="-175.3" font-family="Times,serif" font-size="14.00">1.C</text>
</g>
<!-- 1.B&#45;&gt;1.C -->
<g id="edge2" class="edge"><title>1.B&#45;&gt;1.C</title>
<path fill="none" stroke="#000000" d="M240.446,-192.46C312.222,-189.426 470.326,-182.745 532.799,-180.105"/>
<polygon fill="#000000" stroke="#000000" points="239.943,-188.978 230.099,-192.897 240.238,-195.972 239.943,-188.978"/>
</g>
<!-- 1.B&#45;&gt;2.B -->
<g id="edge16" class="edge"><title>1.B&#45;&gt;2.B</title>
<path fill="none" stroke="#aa00ff" stroke-width="3" stroke-dasharray="1,5" d="M230.034,-211.665C247.157,-221.589 270.487,-232 293,-232 293,-232 293,-232 560.937,-232 579.335,-232 599.756,-232 616.86,-232"/>
<polygon fill="#aa00ff" stroke="#aa00ff" stroke-width="3" points="617.033,-235.5 627.033,-232 617.033,-228.5 617.033,-235.5"/>
<text text-anchor="middle" x="409" y="-235.8" font-family="Times,serif" font-size="14.00">&lt;</text>
</g>
<!-- 2.H -->
<g id="node11" class="node"><title>2.H</title>
<polygon fill="#ffffcc" stroke="black" points="589.939,-306.544 589.939,-321.456 572.364,-332 547.509,-332 529.934,-321.456 529.934,-306.544 547.509,-296 572.364,-296 589.939,-306.544"/>
<text text-anchor="middle" x="559.937" y="-310.3" font-family="Times,serif" font-size="14.00">2.H</text>
</g>
<!-- 1.H&#45;&gt;2.H -->
<g id="edge19" class="edge"><title>1.H&#45;&gt;2.H</title>
<path fill="none" stroke="#aa00ff" stroke-width="3" stroke-dasharray="1,5" d="M436.284,-326.353C459.433,-324.021 493.469,-320.594 519.817,-317.94"/>
<polygon fill="#aa00ff" stroke="#aa00ff" stroke-width="3" points="520.261,-321.413 529.86,-316.928 519.559,-314.448 520.261,-321.413"/>
<text text-anchor="middle" x="482.843" y="-327.8" font-family="Times,serif" font-size="14.00">==</text>
</g>
<!-- 2.I -->
<g id="node10" class="node"><title>2.I</title>
<polygon fill="#ffffcc" stroke="black" points="586.937,-347.544 586.937,-362.456 571.12,-373 548.753,-373 532.937,-362.456 532.937,-347.544 548.753,-337 571.12,-337 586.937,-347.544"/>
<text text-anchor="middle" x="559.937" y="-351.3" font-family="Times,serif" font-size="14.00">2.I</text>
</g>
<!-- 2.I&#45;&gt;2.F -->
<g id="edge15" class="edge"><title>2.I&#45;&gt;2.F</title>
<path fill="none" stroke="#000000" d="M587.147,-360.293C596.609,-362.203 607.479,-364.398 617.709,-366.464"/>
<polygon fill="#000000" stroke="#000000" points="617.153,-369.922 627.648,-368.471 618.539,-363.061 617.153,-369.922"/>
</g>
<!-- 2.H&#45;&gt;2.B -->
<g id="edge12" class="edge"><title>2.H&#45;&gt;2.B</title>
<path fill="none" stroke="#000000" d="M587.317,-304.761C594.821,-301.418 602.708,-297.165 609.187,-292 620.785,-282.753 631.087,-269.958 638.973,-258.558"/>
<polygon fill="#000000" stroke="#000000" points="641.908,-260.464 644.513,-250.194 636.072,-256.598 641.908,-260.464"/>
</g>
<!-- 2.C -->
<g id="node12" class="node"><title>2.C</title>
<polygon fill="#ffffcc" stroke="black" points="588.624,-115.544 588.624,-130.456 571.819,-141 548.054,-141 531.249,-130.456 531.249,-115.544 548.054,-105 571.819,-105 588.624,-115.544"/>
<text text-anchor="middle" x="559.937" y="-119.3" font-family="Times,serif" font-size="14.00">2.C</text>
</g>
<!-- 2.C&#45;&gt;2.B -->
<g id="edge11" class="edge"><title>2.C&#45;&gt;2.B</title>
<path fill="none" stroke="#000000" d="M576.739,-138.047C581.189,-142.448 585.965,-147.334 590.187,-152 606.325,-169.838 623.411,-191.024 635.991,-207.111"/>
<polygon fill="#000000" stroke="#000000" points="633.231,-209.264 642.129,-215.014 638.759,-204.97 633.231,-209.264"/>
</g>
<!-- 2.B&#45;&gt;2.A -->
<g id="edge13" class="edge"><title>2.B&#45;&gt;2.A</title>
<path fill="none" stroke="#000000" d="M684.839,-232C693.271,-232 702.682,-232 711.664,-232"/>
<polygon fill="#000000" stroke="#000000" points="711.927,-235.5 721.927,-232 711.927,-228.5 711.927,-235.5"/>
</g>
<!-- 2.G&#45;&gt;2.F -->
<g id="edge14" class="edge"><title>2.G&#45;&gt;2.F</title>
<path fill="none" stroke="#000000" d="M588.659,-389.518C597.832,-387.373 608.192,-384.951 617.951,-382.669"/>
<polygon fill="#000000" stroke="#000000" points="618.89,-386.044 627.83,-380.36 617.296,-379.228 618.89,-386.044"/>
</g>
<!-- 2.F&#45;&gt;2.A -->
<g id="edge9" class="edge"><title>2.F&#45;&gt;2.A</title>
<path fill="none" stroke="#000000" d="M668.581,-356.303C684.608,-331.749 713.717,-287.153 732.363,-258.586"/>
<polygon fill="#000000" stroke="#000000" points="735.484,-260.207 738.019,-249.92 729.623,-256.381 735.484,-260.207"/>
</g>
<!-- 2.E&#45;&gt;2.B -->
<g id="edge10" class="edge"><title>2.E&#45;&gt;2.B</title>
<path fill="none" stroke="#000000" d="M511.815,-53.3704C535.271,-60.7836 568.345,-74.2758 590.187,-96 620.712,-126.361 638.79,-173.901 647.808,-203.978"/>
<polygon fill="#000000" stroke="#000000" points="644.511,-205.18 650.625,-213.832 651.241,-203.255 644.511,-205.18"/>
</g>
<!-- 2C+&#45;&gt;1.C -->
<g id="edge24" class="edge"><title>2C+&#45;&gt;1.C</title>
<path fill="none" stroke="#aa00ff" stroke-width="3" stroke-dasharray="1,5" d="M438.098,-153.713C458.627,-155.974 487.062,-159.689 511.686,-165 518.544,-166.479 525.857,-168.447 532.629,-170.439"/>
<polygon fill="#aa00ff" stroke="#aa00ff" stroke-width="3" points="438.457,-150.231 428.145,-152.662 437.722,-157.193 438.457,-150.231"/>
<text text-anchor="middle" x="482.843" y="-168.8" font-family="Times,serif" font-size="14.00">in</text>
</g>
<!-- 2C+&#45;&gt;2.C -->
<g id="edge23" class="edge"><title>2C+&#45;&gt;2.C</title>
<path fill="none" stroke="#aa00ff" stroke-width="3" stroke-dasharray="1,5" d="M421.893,-136.921C429.968,-128.504 441.435,-118.581 454,-114 475.75,-106.071 501.654,-108.186 522.282,-112.35"/>
<polygon fill="#aa00ff" stroke="#aa00ff" stroke-width="3" points="521.716,-115.81 532.241,-114.597 523.257,-108.981 521.716,-115.81"/>
<text text-anchor="middle" x="482.843" y="-117.8" font-family="Times,serif" font-size="14.00">out</text>
</g>
<!-- Legend -->
<g id="node19" class="node"><title>Legend</title>
<polygon fill="white" stroke="black" points="67,-341 0,-341 0,-141 67,-141 67,-341"/>
<polygon fill="none" stroke="black" points="0.5,-316 0.5,-341 67.5,-341 67.5,-316 0.5,-316"/>
<text text-anchor="start" x="9.5" y="-324.8" font-family="Arial Black" font-size="14.00"> Nodes</text>
<polygon fill="#ccffcc" stroke="none" points="0.5,-291 0.5,-316 47.5,-316 47.5,-291 0.5,-291"/>
<polygon fill="none" stroke="black" points="0.5,-291 0.5,-316 47.5,-316 47.5,-291 0.5,-291"/>
<text text-anchor="start" x="19" y="-299.8" font-family="Times,serif" font-size="14.00">1</text>
<polygon fill="none" stroke="black" points="47.5,-291 47.5,-316 67.5,-316 67.5,-291 47.5,-291"/>
<text text-anchor="start" x="52.5" y="-299.8" font-family="Times,serif" font-size="14.00">9</text>
<polygon fill="#ffffcc" stroke="none" points="0.5,-266 0.5,-291 47.5,-291 47.5,-266 0.5,-266"/>
<polygon fill="none" stroke="black" points="0.5,-266 0.5,-291 47.5,-291 47.5,-266 0.5,-266"/>
<text text-anchor="start" x="19" y="-274.8" font-family="Times,serif" font-size="14.00">2</text>
<polygon fill="none" stroke="black" points="47.5,-266 47.5,-291 67.5,-291 67.5,-266 47.5,-266"/>
<text text-anchor="start" x="52.5" y="-274.8" font-family="Times,serif" font-size="14.00">8</text>
<polygon fill="#ffffff" stroke="none" points="0.5,-241 0.5,-266 47.5,-266 47.5,-241 0.5,-241"/>
<polygon fill="none" stroke="black" points="0.5,-241 0.5,-266 47.5,-266 47.5,-241 0.5,-241"/>
<text text-anchor="start" x="12.5" y="-249.8" font-family="Times,serif" font-size="14.00">(+)</text>
<polygon fill="none" stroke="black" points="47.5,-241 47.5,-266 67.5,-266 67.5,-241 47.5,-241"/>
<text text-anchor="start" x="52.5" y="-249.8" font-family="Times,serif" font-size="14.00">1</text>
<polygon fill="none" stroke="black" points="0.5,-216 0.5,-241 67.5,-241 67.5,-216 0.5,-216"/>
<text text-anchor="start" x="8" y="-224.8" font-family="Arial Black" font-size="14.00"> Edges </text>
<polygon fill="none" stroke="black" points="0.5,-191 0.5,-216 47.5,-216 47.5,-191 0.5,-191"/>
<text text-anchor="start" x="5.5" y="-199.8" font-family="Times,serif" font-size="14.00" fill="#000000">isa_1</text>
<polygon fill="none" stroke="black" points="47.5,-191 47.5,-216 67.5,-216 67.5,-191 47.5,-191"/>
<text text-anchor="start" x="52.5" y="-199.8" font-family="Times,serif" font-size="14.00">8</text>
<polygon fill="none" stroke="black" points="0.5,-166 0.5,-191 47.5,-191 47.5,-166 0.5,-166"/>
<text text-anchor="start" x="5.5" y="-174.8" font-family="Times,serif" font-size="14.00" fill="#000000">isa_2</text>
<polygon fill="none" stroke="black" points="47.5,-166 47.5,-191 67.5,-191 67.5,-166 47.5,-166"/>
<text text-anchor="start" x="52.5" y="-174.8" font-family="Times,serif" font-size="14.00">7</text>
<polygon fill="none" stroke="black" points="0.5,-141 0.5,-166 47.5,-166 47.5,-141 0.5,-141"/>
<text text-anchor="start" x="10" y="-149.8" font-family="Times,serif" font-size="14.00" fill="#aa00ff">Art.</text>
<polygon fill="none" stroke="black" points="47.5,-141 47.5,-166 67.5,-166 67.5,-141 47.5,-141"/>
<text text-anchor="start" x="52.5" y="-149.8" font-family="Times,serif" font-size="14.00">8</text>
</g>
</g>
</svg>
