<?xml version="1.0" encoding="UTF-8" standalone="no"?>
<!DOCTYPE svg PUBLIC "-//W3C//DTD SVG 1.1//EN"
 "http://www.w3.org/Graphics/SVG/1.1/DTD/svg11.dtd">
<!-- Generated by graphviz version 2.38.0 (20140413.2041)
 -->
<!-- Title: %3 Pages: 1 -->
<svg width="565pt" height="294pt"
 viewBox="0.00 0.00 565.37 294.00" xmlns="http://www.w3.org/2000/svg" xmlns:xlink="http://www.w3.org/1999/xlink">
<g id="graph0" class="graph" transform="scale(1 1) rotate(0) translate(4 290)">
<title>%3</title>
<polygon fill="white" stroke="none" points="-4,4 -4,-290 561.373,-290 561.373,4 -4,4"/>
<!-- 1.D -->
<g id="node1" class="node"><title>1.D</title>
<polygon fill="#ccffcc" stroke="black" points="421.373,-258 367.373,-258 367.373,-222 421.373,-222 421.373,-258"/>
<text text-anchor="middle" x="394.373" y="-236.3" font-family="Times,serif" font-size="14.00">1.D</text>
</g>
<!-- 2.C -->
<g id="node6" class="node"><title>2.C</title>
<polygon fill="#ffffcc" stroke="black" points="331.217,-205.544 331.217,-220.456 314.412,-231 290.647,-231 273.842,-220.456 273.842,-205.544 290.647,-195 314.412,-195 331.217,-205.544"/>
<text text-anchor="middle" x="302.53" y="-209.3" font-family="Times,serif" font-size="14.00">2.C</text>
</g>
<!-- 1.D&#45;&gt;2.C -->
<g id="edge11" class="edge"><title>1.D&#45;&gt;2.C</title>
<path fill="none" stroke="#000000" d="M366.903,-232.045C358.554,-229.536 349.176,-226.718 340.246,-224.034"/>
<polygon fill="#000000" stroke="#000000" points="341.016,-220.611 330.432,-221.085 339.002,-227.315 341.016,-220.611"/>
</g>
<!-- 1.F -->
<g id="node2" class="node"><title>1.F</title>
<polygon fill="#ccffcc" stroke="black" points="145.843,-121 91.8432,-121 91.8432,-85 145.843,-85 145.843,-121"/>
<text text-anchor="middle" x="118.843" y="-99.3" font-family="Times,serif" font-size="14.00">1.F</text>
</g>
<!-- 2.F -->
<g id="node5" class="node"><title>2.F</title>
<polygon fill="#ffffcc" stroke="black" points="147.123,-41.5442 147.123,-56.4558 130.557,-67 107.129,-67 90.5631,-56.4558 90.5631,-41.5442 107.129,-31 130.557,-31 147.123,-41.5442"/>
<text text-anchor="middle" x="118.843" y="-45.3" font-family="Times,serif" font-size="14.00">2.F</text>
</g>
<!-- 1.F&#45;&gt;2.F -->
<g id="edge2" class="edge"><title>1.F&#45;&gt;2.F</title>
<path fill="none" stroke="#0000ff" stroke-dasharray="1,5" d="M118.843,-84.7902C118.843,-78.907 118.843,-73.0238 118.843,-67.1406"/>
</g>
<!-- 2.B -->
<g id="node7" class="node"><title>2.B</title>
<polygon fill="#ffffcc" stroke="black" points="147.53,-149.544 147.53,-164.456 130.726,-175 106.961,-175 90.156,-164.456 90.156,-149.544 106.961,-139 130.726,-139 147.53,-149.544"/>
<text text-anchor="middle" x="118.843" y="-153.3" font-family="Times,serif" font-size="14.00">2.B</text>
</g>
<!-- 1.F&#45;&gt;2.B -->
<g id="edge1" class="edge"><title>1.F&#45;&gt;2.B</title>
<path fill="none" stroke="#0000ff" stroke-dasharray="1,5" d="M118.843,-121.141C118.843,-127.024 118.843,-132.907 118.843,-138.79"/>
</g>
<!-- 1.A\n2.A -->
<g id="node8" class="node"><title>1.A\n2.A</title>
<path fill="#eeeeee" stroke="black" d="M42,-122C42,-122 12,-122 12,-122 6,-122 0,-116 0,-110 0,-110 0,-96 0,-96 0,-90 6,-84 12,-84 12,-84 42,-84 42,-84 48,-84 54,-90 54,-96 54,-96 54,-110 54,-110 54,-116 48,-122 42,-122"/>
<text text-anchor="middle" x="27" y="-106.8" font-family="Times,serif" font-size="14.00">1.A</text>
<text text-anchor="middle" x="27" y="-91.8" font-family="Times,serif" font-size="14.00">2.A</text>
</g>
<!-- 1.F&#45;&gt;1.A\n2.A -->
<g id="edge3" class="edge"><title>1.F&#45;&gt;1.A\n2.A</title>
<path fill="none" stroke="#000000" d="M91.3732,-103C82.9653,-103 73.5136,-103 64.5267,-103"/>
<polygon fill="#000000" stroke="#000000" points="64.2808,-99.5001 54.2808,-103 64.2808,-106.5 64.2808,-99.5001"/>
</g>
<!-- 1.B -->
<g id="node3" class="node"><title>1.B</title>
<polygon fill="#ccffcc" stroke="black" points="237.686,-204 183.686,-204 183.686,-168 237.686,-168 237.686,-204"/>
<text text-anchor="middle" x="210.686" y="-182.3" font-family="Times,serif" font-size="14.00">1.B</text>
</g>
<!-- 1.B&#45;&gt;2.B -->
<g id="edge10" class="edge"><title>1.B&#45;&gt;2.B</title>
<path fill="none" stroke="#000000" d="M183.216,-177.456C174.626,-174.683 164.945,-171.558 155.784,-168.601"/>
<polygon fill="#000000" stroke="#000000" points="156.716,-165.224 146.124,-165.483 154.565,-171.886 156.716,-165.224"/>
</g>
<!-- 1.C -->
<g id="node4" class="node"><title>1.C</title>
<polygon fill="#ccffcc" stroke="black" points="421.373,-204 367.373,-204 367.373,-168 421.373,-168 421.373,-204"/>
<text text-anchor="middle" x="394.373" y="-182.3" font-family="Times,serif" font-size="14.00">1.C</text>
</g>
<!-- 1.C&#45;&gt;2.C -->
<g id="edge5" class="edge"><title>1.C&#45;&gt;2.C</title>
<path fill="none" stroke="#000000" d="M366.903,-193.955C358.554,-196.464 349.176,-199.282 340.246,-201.966"/>
<polygon fill="#000000" stroke="#000000" points="339.002,-198.685 330.432,-204.915 341.016,-205.389 339.002,-198.685"/>
</g>
<!-- 2.F&#45;&gt;1.A\n2.A -->
<g id="edge7" class="edge"><title>2.F&#45;&gt;1.A\n2.A</title>
<path fill="none" stroke="#000000" d="M97.4564,-61.2534C87.2248,-67.4031 74.5438,-75.025 62.8285,-82.0664"/>
<polygon fill="#000000" stroke="#000000" points="60.8825,-79.1524 54.1146,-87.3039 64.4886,-85.1521 60.8825,-79.1524"/>
</g>
<!-- 2.C&#45;&gt;1.B -->
<g id="edge15" class="edge"><title>2.C&#45;&gt;1.B</title>
<path fill="none" stroke="#ff0000" d="M274.574,-204.899C265.995,-202.321 256.37,-199.429 247.279,-196.696"/>
<polygon fill="#ff0000" stroke="#ff0000" points="248.281,-193.343 237.697,-193.817 246.267,-200.047 248.281,-193.343"/>
</g>
<!-- 2.B&#45;&gt;1.A\n2.A -->
<g id="edge13" class="edge"><title>2.B&#45;&gt;1.A\n2.A</title>
<path fill="none" stroke="#000000" d="M97.4564,-144.747C87.2248,-138.597 74.5438,-130.975 62.8285,-123.934"/>
<polygon fill="#000000" stroke="#000000" points="64.4886,-120.848 54.1146,-118.696 60.8825,-126.848 64.4886,-120.848"/>
</g>
<!-- 1.I\n2.I -->
<g id="node9" class="node"><title>1.I\n2.I</title>
<path fill="#eeeeee" stroke="black" d="M225.686,-38C225.686,-38 195.686,-38 195.686,-38 189.686,-38 183.686,-32 183.686,-26 183.686,-26 183.686,-12 183.686,-12 183.686,-6 189.686,-0 195.686,-0 195.686,-0 225.686,-0 225.686,-0 231.686,-0 237.686,-6 237.686,-12 237.686,-12 237.686,-26 237.686,-26 237.686,-32 231.686,-38 225.686,-38"/>
<text text-anchor="middle" x="210.686" y="-22.8" font-family="Times,serif" font-size="14.00">1.I</text>
<text text-anchor="middle" x="210.686" y="-7.8" font-family="Times,serif" font-size="14.00">2.I</text>
</g>
<!-- 1.I\n2.I&#45;&gt;2.F -->
<g id="edge14" class="edge"><title>1.I\n2.I&#45;&gt;2.F</title>
<path fill="none" stroke="#000000" d="M183.216,-27.8387C174.381,-30.7891 164.392,-34.1244 155.002,-37.26"/>
<polygon fill="#000000" stroke="#000000" points="153.883,-33.9437 145.506,-40.4308 156.1,-40.5833 153.883,-33.9437"/>
</g>
<!-- 1.G\n2.G -->
<g id="node10" class="node"><title>1.G\n2.G</title>
<path fill="#eeeeee" stroke="black" d="M225.686,-94C225.686,-94 195.686,-94 195.686,-94 189.686,-94 183.686,-88 183.686,-82 183.686,-82 183.686,-68 183.686,-68 183.686,-62 189.686,-56 195.686,-56 195.686,-56 225.686,-56 225.686,-56 231.686,-56 237.686,-62 237.686,-68 237.686,-68 237.686,-82 237.686,-82 237.686,-88 231.686,-94 225.686,-94"/>
<text text-anchor="middle" x="210.686" y="-78.8" font-family="Times,serif" font-size="14.00">1.G</text>
<text text-anchor="middle" x="210.686" y="-63.8" font-family="Times,serif" font-size="14.00">2.G</text>
</g>
<!-- 1.G\n2.G&#45;&gt;1.F -->
<g id="edge9" class="edge"><title>1.G\n2.G&#45;&gt;1.F</title>
<path fill="none" stroke="#000000" d="M183.216,-83.2495C174.626,-85.9268 164.945,-88.9437 155.784,-91.7987"/>
<polygon fill="#000000" stroke="#000000" points="154.63,-88.4925 146.124,-94.8095 156.713,-95.1755 154.63,-88.4925"/>
</g>
<!-- 1.G\n2.G&#45;&gt;2.F -->
<g id="edge8" class="edge"><title>1.G\n2.G&#45;&gt;2.F</title>
<path fill="none" stroke="#000000" d="M183.216,-67.3398C174.868,-64.9237 165.489,-62.2097 156.559,-59.6254"/>
<polygon fill="#000000" stroke="#000000" points="157.325,-56.2033 146.746,-56.7854 155.379,-62.9274 157.325,-56.2033"/>
</g>
<!-- 1.E\n2.E -->
<g id="node11" class="node"><title>1.E\n2.E</title>
<path fill="#eeeeee" stroke="black" d="M317.53,-177C317.53,-177 287.53,-177 287.53,-177 281.53,-177 275.53,-171 275.53,-165 275.53,-165 275.53,-151 275.53,-151 275.53,-145 281.53,-139 287.53,-139 287.53,-139 317.53,-139 317.53,-139 323.53,-139 329.53,-145 329.53,-151 329.53,-151 329.53,-165 329.53,-165 329.53,-171 323.53,-177 317.53,-177"/>
<text text-anchor="middle" x="302.53" y="-161.8" font-family="Times,serif" font-size="14.00">1.E</text>
<text text-anchor="middle" x="302.53" y="-146.8" font-family="Times,serif" font-size="14.00">2.E</text>
</g>
<!-- 1.E\n2.E&#45;&gt;1.B -->
<g id="edge12" class="edge"><title>1.E\n2.E&#45;&gt;1.B</title>
<path fill="none" stroke="#000000" d="M275.06,-166.249C266.469,-168.927 256.789,-171.944 247.628,-174.799"/>
<polygon fill="#000000" stroke="#000000" points="246.473,-171.493 237.967,-177.809 248.556,-178.176 246.473,-171.493"/>
</g>
<!-- 1.H\n2.H -->
<g id="node12" class="node"><title>1.H\n2.H</title>
<path fill="#eeeeee" stroke="black" d="M225.686,-150C225.686,-150 195.686,-150 195.686,-150 189.686,-150 183.686,-144 183.686,-138 183.686,-138 183.686,-124 183.686,-124 183.686,-118 189.686,-112 195.686,-112 195.686,-112 225.686,-112 225.686,-112 231.686,-112 237.686,-118 237.686,-124 237.686,-124 237.686,-138 237.686,-138 237.686,-144 231.686,-150 225.686,-150"/>
<text text-anchor="middle" x="210.686" y="-134.8" font-family="Times,serif" font-size="14.00">1.H</text>
<text text-anchor="middle" x="210.686" y="-119.8" font-family="Times,serif" font-size="14.00">2.H</text>
</g>
<!-- 1.H\n2.H&#45;&gt;1.F -->
<g id="edge4" class="edge"><title>1.H\n2.H&#45;&gt;1.F</title>
<path fill="none" stroke="#000000" d="M183.216,-122.751C174.626,-120.073 164.945,-117.056 155.784,-114.201"/>
<polygon fill="#000000" stroke="#000000" points="156.713,-110.824 146.124,-111.191 154.63,-117.507 156.713,-110.824"/>
</g>
<!-- 1.H\n2.H&#45;&gt;2.B -->
<g id="edge6" class="edge"><title>1.H\n2.H&#45;&gt;2.B</title>
<path fill="none" stroke="#000000" d="M183.216,-138.66C174.943,-141.055 165.658,-143.741 156.801,-146.305"/>
<polygon fill="#000000" stroke="#000000" points="155.691,-142.982 147.058,-149.124 157.637,-149.706 155.691,-142.982"/>
</g>
<!-- Legend -->
<g id="node13" class="node"><title>Legend</title>
<path fill="white" stroke="black" d="M545.373,-286C545.373,-286 469.373,-286 469.373,-286 463.373,-286 457.373,-280 457.373,-274 457.373,-274 457.373,-98 457.373,-98 457.373,-92 463.373,-86 469.373,-86 469.373,-86 545.373,-86 545.373,-86 551.373,-86 557.373,-92 557.373,-98 557.373,-98 557.373,-274 557.373,-274 557.373,-280 551.373,-286 545.373,-286"/>
<polygon fill="none" stroke="black" points="457.373,-261 457.373,-286 557.373,-286 557.373,-261 457.373,-261"/>
<text text-anchor="start" x="482.873" y="-269.8" font-family="Arial Black" font-size="14.00"> Nodes</text>
<polygon fill="#ccffcc" stroke="none" points="457.373,-236 457.373,-261 528.373,-261 528.373,-236 457.373,-236"/>
<polygon fill="none" stroke="black" points="457.373,-236 457.373,-261 528.373,-261 528.373,-236 457.373,-236"/>
<text text-anchor="start" x="487.873" y="-244.8" font-family="Times,serif" font-size="14.00">1</text>
<polygon fill="none" stroke="black" points="528.373,-236 528.373,-261 557.373,-261 557.373,-236 528.373,-236"/>
<text text-anchor="start" x="537.873" y="-244.8" font-family="Times,serif" font-size="14.00">4</text>
<polygon fill="#ffffcc" stroke="none" points="457.373,-211 457.373,-236 528.373,-236 528.373,-211 457.373,-211"/>
<polygon fill="none" stroke="black" points="457.373,-211 457.373,-236 528.373,-236 528.373,-211 457.373,-211"/>
<text text-anchor="start" x="487.873" y="-219.8" font-family="Times,serif" font-size="14.00">2</text>
<polygon fill="none" stroke="black" points="528.373,-211 528.373,-236 557.373,-236 557.373,-211 528.373,-211"/>
<text text-anchor="start" x="537.873" y="-219.8" font-family="Times,serif" font-size="14.00">3</text>
<polygon fill="#eeeeee" stroke="none" points="457.373,-186 457.373,-211 528.373,-211 528.373,-186 457.373,-186"/>
<polygon fill="none" stroke="black" points="457.373,-186 457.373,-211 528.373,-211 528.373,-186 457.373,-186"/>
<text text-anchor="start" x="472.873" y="-194.8" font-family="Times,serif" font-size="14.00">comb</text>
<polygon fill="none" stroke="black" points="528.373,-186 528.373,-211 557.373,-211 557.373,-186 528.373,-186"/>
<text text-anchor="start" x="537.873" y="-194.8" font-family="Times,serif" font-size="14.00">5</text>
<polygon fill="none" stroke="black" points="457.373,-161 457.373,-186 557.373,-186 557.373,-161 457.373,-161"/>
<text text-anchor="start" x="481.373" y="-169.8" font-family="Arial Black" font-size="14.00"> Edges </text>
<polygon fill="none" stroke="black" points="457.373,-136 457.373,-161 528.373,-161 528.373,-136 457.373,-136"/>
<text text-anchor="start" x="462.373" y="-144.8" font-family="Times,serif" font-size="14.00" fill="#0000ff">overlaps</text>
<polygon fill="none" stroke="black" points="528.373,-136 528.373,-161 557.373,-161 557.373,-136 528.373,-136"/>
<text text-anchor="start" x="537.873" y="-144.8" font-family="Times,serif" font-size="14.00">2</text>
<polygon fill="none" stroke="black" points="457.373,-111 457.373,-136 528.373,-136 528.373,-111 457.373,-111"/>
<text text-anchor="start" x="473.873" y="-119.8" font-family="Times,serif" font-size="14.00" fill="#000000">input</text>
<polygon fill="none" stroke="black" points="528.373,-111 528.373,-136 557.373,-136 557.373,-111 528.373,-111"/>
<text text-anchor="start" x="533.373" y="-119.8" font-family="Times,serif" font-size="14.00">12</text>
<polygon fill="none" stroke="black" points="457.373,-86 457.373,-111 528.373,-111 528.373,-86 457.373,-86"/>
<text text-anchor="start" x="463.873" y="-94.8" font-family="Times,serif" font-size="14.00" fill="#ff0000">inferred</text>
<polygon fill="none" stroke="black" points="528.373,-86 528.373,-111 557.373,-111 557.373,-86 528.373,-86"/>
<text text-anchor="start" x="537.873" y="-94.8" font-family="Times,serif" font-size="14.00">1</text>
</g>
</g>
</svg>
