<?xml version="1.0" encoding="UTF-8" standalone="no"?>
<!DOCTYPE svg PUBLIC "-//W3C//DTD SVG 1.1//EN"
 "http://www.w3.org/Graphics/SVG/1.1/DTD/svg11.dtd">
<!-- Generated by graphviz version 2.38.0 (20140413.2041)
 -->
<!-- Title: %3 Pages: 1 -->
<svg width="475pt" height="264pt"
 viewBox="0.00 0.00 475.37 264.00" xmlns="http://www.w3.org/2000/svg" xmlns:xlink="http://www.w3.org/1999/xlink">
<g id="graph0" class="graph" transform="scale(1 1) rotate(0) translate(4 260)">
<title>%3</title>
<polygon fill="white" stroke="none" points="-4,4 -4,-260 471.373,-260 471.373,4 -4,4"/>
<!-- 1.D -->
<g id="node1" class="node"><title>1.D</title>
<polygon fill="#ccffcc" stroke="black" points="331.373,-256 277.373,-256 277.373,-220 331.373,-220 331.373,-256"/>
<text text-anchor="middle" x="304.373" y="-234.3" font-family="Times,serif" font-size="14.00">1.D</text>
</g>
<!-- 1.B -->
<g id="node3" class="node"><title>1.B</title>
<polygon fill="#ccffcc" stroke="black" points="239.53,-202 185.53,-202 185.53,-166 239.53,-166 239.53,-202"/>
<text text-anchor="middle" x="212.53" y="-180.3" font-family="Times,serif" font-size="14.00">1.B</text>
</g>
<!-- 1.D&#45;&gt;1.B -->
<g id="edge16" class="edge"><title>1.D&#45;&gt;1.B</title>
<path fill="none" stroke="#000000" d="M276.903,-222.09C268.038,-216.762 258.013,-210.736 248.595,-205.076"/>
<polygon fill="#000000" stroke="#000000" points="250.184,-201.948 239.81,-199.796 246.578,-207.947 250.184,-201.948"/>
</g>
<!-- 2.C -->
<g id="node7" class="node"><title>2.C</title>
<polygon fill="#ffffcc" stroke="black" points="241.217,-230.544 241.217,-245.456 224.412,-256 200.647,-256 183.842,-245.456 183.842,-230.544 200.647,-220 224.412,-220 241.217,-230.544"/>
<text text-anchor="middle" x="212.53" y="-234.3" font-family="Times,serif" font-size="14.00">2.C</text>
</g>
<!-- 1.D&#45;&gt;2.C -->
<g id="edge20" class="edge"><title>1.D&#45;&gt;2.C</title>
<path fill="none" stroke="#000000" d="M276.903,-238C268.954,-238 260.073,-238 251.533,-238"/>
<polygon fill="#000000" stroke="#000000" points="251.372,-234.5 241.372,-238 251.372,-241.5 251.372,-234.5"/>
</g>
<!-- 1.F -->
<g id="node2" class="node"><title>1.F</title>
<polygon fill="#ccffcc" stroke="black" points="145.843,-144 91.8432,-144 91.8432,-108 145.843,-108 145.843,-144"/>
<text text-anchor="middle" x="118.843" y="-122.3" font-family="Times,serif" font-size="14.00">1.F</text>
</g>
<!-- 2.B -->
<g id="node8" class="node"><title>2.B</title>
<polygon fill="#ffffcc" stroke="black" points="147.53,-174.544 147.53,-189.456 130.726,-200 106.961,-200 90.156,-189.456 90.156,-174.544 106.961,-164 130.726,-164 147.53,-174.544"/>
<text text-anchor="middle" x="118.843" y="-178.3" font-family="Times,serif" font-size="14.00">2.B</text>
</g>
<!-- 1.F&#45;&gt;2.B -->
<g id="edge5" class="edge"><title>1.F&#45;&gt;2.B</title>
<path fill="none" stroke="#0000ff" stroke-dasharray="1,5" d="M118.843,-144.375C118.843,-150.842 118.843,-157.309 118.843,-163.775"/>
</g>
<!-- 2.F -->
<g id="node9" class="node"><title>2.F</title>
<polygon fill="#ffffcc" stroke="black" points="147.123,-64.5442 147.123,-79.4558 130.557,-90 107.129,-90 90.5631,-79.4558 90.5631,-64.5442 107.129,-54 130.557,-54 147.123,-64.5442"/>
<text text-anchor="middle" x="118.843" y="-68.3" font-family="Times,serif" font-size="14.00">2.F</text>
</g>
<!-- 1.F&#45;&gt;2.F -->
<g id="edge6" class="edge"><title>1.F&#45;&gt;2.F</title>
<path fill="none" stroke="#0000ff" stroke-dasharray="1,5" d="M118.843,-107.79C118.843,-101.907 118.843,-96.0238 118.843,-90.1406"/>
</g>
<!-- 1.A\n2.A -->
<g id="node12" class="node"><title>1.A\n2.A</title>
<path fill="#eeeeee" stroke="black" d="M42,-118C42,-118 12,-118 12,-118 6,-118 0,-112 0,-106 0,-106 0,-92 0,-92 0,-86 6,-80 12,-80 12,-80 42,-80 42,-80 48,-80 54,-86 54,-92 54,-92 54,-106 54,-106 54,-112 48,-118 42,-118"/>
<text text-anchor="middle" x="27" y="-102.8" font-family="Times,serif" font-size="14.00">1.A</text>
<text text-anchor="middle" x="27" y="-87.8" font-family="Times,serif" font-size="14.00">2.A</text>
</g>
<!-- 1.F&#45;&gt;1.A\n2.A -->
<g id="edge10" class="edge"><title>1.F&#45;&gt;1.A\n2.A</title>
<path fill="none" stroke="#000000" d="M91.3732,-118.045C82.7825,-115.463 73.1022,-112.554 63.9413,-109.801"/>
<polygon fill="#000000" stroke="#000000" points="64.865,-106.424 54.2808,-106.898 62.8503,-113.128 64.865,-106.424"/>
</g>
<!-- 1.B&#45;&gt;2.C -->
<g id="edge2" class="edge"><title>1.B&#45;&gt;2.C</title>
<path fill="none" stroke="#0000ff" stroke-dasharray="1,5" d="M212.53,-202.141C212.53,-208.024 212.53,-213.907 212.53,-219.79"/>
</g>
<!-- 1.B&#45;&gt;2.B -->
<g id="edge8" class="edge"><title>1.B&#45;&gt;2.B</title>
<path fill="none" stroke="#000000" d="M185.501,-183.432C176.885,-183.244 167.112,-183.031 157.789,-182.828"/>
<polygon fill="#000000" stroke="#000000" points="157.613,-179.323 147.539,-182.604 157.46,-186.321 157.613,-179.323"/>
</g>
<!-- 1.C -->
<g id="node4" class="node"><title>1.C</title>
<polygon fill="#ccffcc" stroke="black" points="331.373,-202 277.373,-202 277.373,-166 331.373,-166 331.373,-202"/>
<text text-anchor="middle" x="304.373" y="-180.3" font-family="Times,serif" font-size="14.00">1.C</text>
</g>
<!-- 1.C&#45;&gt;1.B -->
<g id="edge7" class="edge"><title>1.C&#45;&gt;1.B</title>
<path fill="none" stroke="#000000" d="M276.903,-184C268.495,-184 259.043,-184 250.056,-184"/>
<polygon fill="#000000" stroke="#000000" points="249.81,-180.5 239.81,-184 249.81,-187.5 249.81,-180.5"/>
</g>
<!-- 1.C&#45;&gt;2.C -->
<g id="edge17" class="edge"><title>1.C&#45;&gt;2.C</title>
<path fill="none" stroke="#000000" d="M276.903,-199.91C266.146,-206.375 253.681,-213.867 242.667,-220.487"/>
<polygon fill="#000000" stroke="#000000" points="240.593,-217.65 233.825,-225.801 244.199,-223.65 240.593,-217.65"/>
</g>
<!-- 1.I -->
<g id="node5" class="node"><title>1.I</title>
<polygon fill="#ccffcc" stroke="black" points="145.843,-36 91.8432,-36 91.8432,-0 145.843,-0 145.843,-36"/>
<text text-anchor="middle" x="118.843" y="-14.3" font-family="Times,serif" font-size="14.00">1.I</text>
</g>
<!-- 1.I&#45;&gt;2.C -->
<g id="edge4" class="edge"><title>1.I&#45;&gt;2.C</title>
<path fill="none" stroke="#0000ff" stroke-dasharray="1,5" d="M141.467,-36.2799C143.827,-39.0081 145.986,-41.9394 147.686,-45 184.353,-110.99 147.019,-145.01 183.686,-211 186.303,-215.709 190.003,-220.111 193.854,-223.939"/>
</g>
<!-- 1.I&#45;&gt;2.B -->
<g id="edge3" class="edge"><title>1.I&#45;&gt;2.B</title>
<path fill="none" stroke="#0000ff" stroke-dasharray="1,5" d="M146.258,-32.6131C153.978,-38.2003 161.425,-45.3514 165.686,-54 183.364,-89.8816 182.891,-107.889 165.686,-144 160.462,-154.966 150.354,-163.797 140.861,-170.175"/>
</g>
<!-- 1.I&#45;&gt;2.F -->
<g id="edge1" class="edge"><title>1.I&#45;&gt;2.F</title>
<path fill="none" stroke="#0000ff" stroke-dasharray="1,5" d="M118.843,-36.1406C118.843,-42.0238 118.843,-47.907 118.843,-53.7902"/>
</g>
<!-- 1.I&#45;&gt;1.A\n2.A -->
<g id="edge9" class="edge"><title>1.I&#45;&gt;1.A\n2.A</title>
<path fill="none" stroke="#000000" d="M97.4564,-36.3802C85.4249,-47.2273 70.0063,-61.1283 56.754,-73.0762"/>
<polygon fill="#000000" stroke="#000000" points="54.3271,-70.5518 49.2436,-79.8474 59.0144,-75.7508 54.3271,-70.5518"/>
</g>
<!-- 2.I -->
<g id="node6" class="node"><title>2.I</title>
<polygon fill="#ffffcc" stroke="black" points="239.53,-10.5442 239.53,-25.4558 223.713,-36 201.346,-36 185.53,-25.4558 185.53,-10.5442 201.346,-3.55271e-15 223.713,-0 239.53,-10.5442"/>
<text text-anchor="middle" x="212.53" y="-14.3" font-family="Times,serif" font-size="14.00">2.I</text>
</g>
<!-- 2.I&#45;&gt;1.I -->
<g id="edge23" class="edge"><title>2.I&#45;&gt;1.I</title>
<path fill="none" stroke="#ff0000" d="M185.501,-18C176.403,-18 166.016,-18 156.23,-18"/>
<polygon fill="#ff0000" stroke="#ff0000" points="155.937,-14.5001 145.937,-18 155.937,-21.5001 155.937,-14.5001"/>
</g>
<!-- 2.I&#45;&gt;2.F -->
<g id="edge22" class="edge"><title>2.I&#45;&gt;2.F</title>
<path fill="none" stroke="#000000" d="M191.635,-29.7172C179.192,-37.0455 162.947,-46.6134 149.057,-54.7939"/>
<polygon fill="#000000" stroke="#000000" points="147.174,-51.841 140.334,-59.9318 150.727,-57.8727 147.174,-51.841"/>
</g>
<!-- 2.C&#45;&gt;2.B -->
<g id="edge15" class="edge"><title>2.C&#45;&gt;2.B</title>
<path fill="none" stroke="#000000" d="M191.181,-225.572C178.718,-217.959 162.567,-208.095 148.786,-199.678"/>
<polygon fill="#000000" stroke="#000000" points="150.493,-196.619 140.134,-194.393 146.844,-202.593 150.493,-196.619"/>
</g>
<!-- 2.B&#45;&gt;1.A\n2.A -->
<g id="edge14" class="edge"><title>2.B&#45;&gt;1.A\n2.A</title>
<path fill="none" stroke="#000000" d="M101.781,-167.161C89.1447,-155.487 71.2249,-138.933 56.2101,-125.061"/>
<polygon fill="#000000" stroke="#000000" points="58.3868,-122.307 48.6665,-118.092 53.6367,-127.449 58.3868,-122.307"/>
</g>
<!-- 2.F&#45;&gt;1.A\n2.A -->
<g id="edge12" class="edge"><title>2.F&#45;&gt;1.A\n2.A</title>
<path fill="none" stroke="#000000" d="M90.8873,-80.1009C82.3088,-82.6789 72.6838,-85.5715 63.5922,-88.3037"/>
<polygon fill="#000000" stroke="#000000" points="62.5804,-84.9531 54.0109,-91.1831 64.5951,-91.6569 62.5804,-84.9531"/>
</g>
<!-- 1.G\n2.G -->
<g id="node10" class="node"><title>1.G\n2.G</title>
<path fill="#eeeeee" stroke="black" d="M227.53,-92C227.53,-92 197.53,-92 197.53,-92 191.53,-92 185.53,-86 185.53,-80 185.53,-80 185.53,-66 185.53,-66 185.53,-60 191.53,-54 197.53,-54 197.53,-54 227.53,-54 227.53,-54 233.53,-54 239.53,-60 239.53,-66 239.53,-66 239.53,-80 239.53,-80 239.53,-86 233.53,-92 227.53,-92"/>
<text text-anchor="middle" x="212.53" y="-76.8" font-family="Times,serif" font-size="14.00">1.G</text>
<text text-anchor="middle" x="212.53" y="-61.8" font-family="Times,serif" font-size="14.00">2.G</text>
</g>
<!-- 1.G\n2.G&#45;&gt;1.F -->
<g id="edge21" class="edge"><title>1.G\n2.G&#45;&gt;1.F</title>
<path fill="none" stroke="#000000" d="M185.501,-88.0459C175.919,-93.5847 164.908,-99.9502 154.674,-105.866"/>
<polygon fill="#000000" stroke="#000000" points="152.843,-102.882 145.937,-110.916 156.346,-108.942 152.843,-102.882"/>
</g>
<!-- 1.G\n2.G&#45;&gt;2.F -->
<g id="edge19" class="edge"><title>1.G\n2.G&#45;&gt;2.F</title>
<path fill="none" stroke="#000000" d="M185.501,-72.7161C176.714,-72.6203 166.725,-72.5113 157.236,-72.4078"/>
<polygon fill="#000000" stroke="#000000" points="157.254,-68.9079 147.216,-72.2986 157.178,-75.9075 157.254,-68.9079"/>
</g>
<!-- 1.E\n2.E -->
<g id="node11" class="node"><title>1.E\n2.E</title>
<path fill="#eeeeee" stroke="black" d="M319.373,-148C319.373,-148 289.373,-148 289.373,-148 283.373,-148 277.373,-142 277.373,-136 277.373,-136 277.373,-122 277.373,-122 277.373,-116 283.373,-110 289.373,-110 289.373,-110 319.373,-110 319.373,-110 325.373,-110 331.373,-116 331.373,-122 331.373,-122 331.373,-136 331.373,-136 331.373,-142 325.373,-148 319.373,-148"/>
<text text-anchor="middle" x="304.373" y="-132.8" font-family="Times,serif" font-size="14.00">1.E</text>
<text text-anchor="middle" x="304.373" y="-117.8" font-family="Times,serif" font-size="14.00">2.E</text>
</g>
<!-- 1.E\n2.E&#45;&gt;1.B -->
<g id="edge13" class="edge"><title>1.E\n2.E&#45;&gt;1.B</title>
<path fill="none" stroke="#000000" d="M276.903,-145.204C268.038,-150.631 258.013,-156.768 248.595,-162.533"/>
<polygon fill="#000000" stroke="#000000" points="246.512,-159.705 239.81,-167.911 250.167,-165.675 246.512,-159.705"/>
</g>
<!-- 1.H\n2.H -->
<g id="node13" class="node"><title>1.H\n2.H</title>
<path fill="#eeeeee" stroke="black" d="M227.53,-148C227.53,-148 197.53,-148 197.53,-148 191.53,-148 185.53,-142 185.53,-136 185.53,-136 185.53,-122 185.53,-122 185.53,-116 191.53,-110 197.53,-110 197.53,-110 227.53,-110 227.53,-110 233.53,-110 239.53,-116 239.53,-122 239.53,-122 239.53,-136 239.53,-136 239.53,-142 233.53,-148 227.53,-148"/>
<text text-anchor="middle" x="212.53" y="-132.8" font-family="Times,serif" font-size="14.00">1.H</text>
<text text-anchor="middle" x="212.53" y="-117.8" font-family="Times,serif" font-size="14.00">2.H</text>
</g>
<!-- 1.H\n2.H&#45;&gt;1.F -->
<g id="edge11" class="edge"><title>1.H\n2.H&#45;&gt;1.F</title>
<path fill="none" stroke="#000000" d="M185.501,-128.148C176.403,-127.851 166.016,-127.511 156.23,-127.191"/>
<polygon fill="#000000" stroke="#000000" points="156.046,-123.683 145.937,-126.854 155.817,-130.679 156.046,-123.683"/>
</g>
<!-- 1.H\n2.H&#45;&gt;2.B -->
<g id="edge18" class="edge"><title>1.H\n2.H&#45;&gt;2.B</title>
<path fill="none" stroke="#000000" d="M185.501,-144.046C174.306,-150.518 161.157,-158.118 149.58,-164.811"/>
<polygon fill="#000000" stroke="#000000" points="147.604,-161.91 140.698,-169.944 151.108,-167.97 147.604,-161.91"/>
</g>
<!-- Legend -->
<g id="node14" class="node"><title>Legend</title>
<path fill="white" stroke="black" d="M455.373,-229C455.373,-229 379.373,-229 379.373,-229 373.373,-229 367.373,-223 367.373,-217 367.373,-217 367.373,-41 367.373,-41 367.373,-35 373.373,-29 379.373,-29 379.373,-29 455.373,-29 455.373,-29 461.373,-29 467.373,-35 467.373,-41 467.373,-41 467.373,-217 467.373,-217 467.373,-223 461.373,-229 455.373,-229"/>
<polygon fill="none" stroke="black" points="367.373,-204 367.373,-229 467.373,-229 467.373,-204 367.373,-204"/>
<text text-anchor="start" x="392.873" y="-212.8" font-family="Arial Black" font-size="14.00"> Nodes</text>
<polygon fill="#ccffcc" stroke="none" points="367.373,-179 367.373,-204 438.373,-204 438.373,-179 367.373,-179"/>
<polygon fill="none" stroke="black" points="367.373,-179 367.373,-204 438.373,-204 438.373,-179 367.373,-179"/>
<text text-anchor="start" x="397.873" y="-187.8" font-family="Times,serif" font-size="14.00">1</text>
<polygon fill="none" stroke="black" points="438.373,-179 438.373,-204 467.373,-204 467.373,-179 438.373,-179"/>
<text text-anchor="start" x="447.873" y="-187.8" font-family="Times,serif" font-size="14.00">5</text>
<polygon fill="#ffffcc" stroke="none" points="367.373,-154 367.373,-179 438.373,-179 438.373,-154 367.373,-154"/>
<polygon fill="none" stroke="black" points="367.373,-154 367.373,-179 438.373,-179 438.373,-154 367.373,-154"/>
<text text-anchor="start" x="397.873" y="-162.8" font-family="Times,serif" font-size="14.00">2</text>
<polygon fill="none" stroke="black" points="438.373,-154 438.373,-179 467.373,-179 467.373,-154 438.373,-154"/>
<text text-anchor="start" x="447.873" y="-162.8" font-family="Times,serif" font-size="14.00">4</text>
<polygon fill="#eeeeee" stroke="none" points="367.373,-129 367.373,-154 438.373,-154 438.373,-129 367.373,-129"/>
<polygon fill="none" stroke="black" points="367.373,-129 367.373,-154 438.373,-154 438.373,-129 367.373,-129"/>
<text text-anchor="start" x="382.873" y="-137.8" font-family="Times,serif" font-size="14.00">comb</text>
<polygon fill="none" stroke="black" points="438.373,-129 438.373,-154 467.373,-154 467.373,-129 438.373,-129"/>
<text text-anchor="start" x="447.873" y="-137.8" font-family="Times,serif" font-size="14.00">4</text>
<polygon fill="none" stroke="black" points="367.373,-104 367.373,-129 467.373,-129 467.373,-104 367.373,-104"/>
<text text-anchor="start" x="391.373" y="-112.8" font-family="Arial Black" font-size="14.00"> Edges </text>
<polygon fill="none" stroke="black" points="367.373,-79 367.373,-104 438.373,-104 438.373,-79 367.373,-79"/>
<text text-anchor="start" x="372.373" y="-87.8" font-family="Times,serif" font-size="14.00" fill="#0000ff">overlaps</text>
<polygon fill="none" stroke="black" points="438.373,-79 438.373,-104 467.373,-104 467.373,-79 438.373,-79"/>
<text text-anchor="start" x="447.873" y="-87.8" font-family="Times,serif" font-size="14.00">6</text>
<polygon fill="none" stroke="black" points="367.373,-54 367.373,-79 438.373,-79 438.373,-54 367.373,-54"/>
<text text-anchor="start" x="383.873" y="-62.8" font-family="Times,serif" font-size="14.00" fill="#000000">input</text>
<polygon fill="none" stroke="black" points="438.373,-54 438.373,-79 467.373,-79 467.373,-54 438.373,-54"/>
<text text-anchor="start" x="443.373" y="-62.8" font-family="Times,serif" font-size="14.00">16</text>
<polygon fill="none" stroke="black" points="367.373,-29 367.373,-54 438.373,-54 438.373,-29 367.373,-29"/>
<text text-anchor="start" x="373.873" y="-37.8" font-family="Times,serif" font-size="14.00" fill="#ff0000">inferred</text>
<polygon fill="none" stroke="black" points="438.373,-29 438.373,-54 467.373,-54 467.373,-29 438.373,-29"/>
<text text-anchor="start" x="447.873" y="-37.8" font-family="Times,serif" font-size="14.00">1</text>
</g>
</g>
</svg>
